<svg viewBox="0 0 1344 925.25" xmlns:xlink="http://www.w3.org/1999/xlink" xmlns="http://www.w3.org/2000/svg"><defs><style>.cls-1{fill:#e6f0f5;}.cls-2{fill:url(#linear-gradient);}.cls-3{fill:#fff;}.cls-4{fill:url(#linear-gradient-2);}.cls-5{fill:url(#linear-gradient-3);}.cls-6{fill:url(#linear-gradient-4);}.cls-7{fill:url(#linear-gradient-5);}.cls-8{fill:url(#linear-gradient-6);}.cls-9{fill:url(#linear-gradient-7);}.cls-10{fill:url(#linear-gradient-8);}.cls-11{fill:url(#linear-gradient-9);}.cls-12{fill:#161c3e;}.cls-13{fill:#0a0e1e;}.cls-14{fill:#ed6263;}.cls-15{fill:url(#linear-gradient-10);}.cls-16{opacity:0.2;}.cls-17{fill:url(#linear-gradient-11);}.cls-18{fill:url(#linear-gradient-12);}.cls-19{fill:url(#linear-gradient-13);}.cls-20{fill:url(#linear-gradient-14);}.cls-21{fill:url(#linear-gradient-15);}.cls-22{fill:url(#linear-gradient-16);}.cls-23{fill:url(#linear-gradient-17);}.cls-24{fill:url(#linear-gradient-18);}.cls-25{fill:url(#linear-gradient-19);}.cls-26{fill:url(#linear-gradient-20);}.cls-27{fill:url(#linear-gradient-21);}</style><linearGradient gradientUnits="userSpaceOnUse" y2="682.92" x2="256.32" y1="915.59" x1="345.63" id="linear-gradient"><stop stop-color="#90bfa5" offset="0"></stop><stop stop-color="#c4dfcc" offset="1"></stop></linearGradient><linearGradient xlink:href="#linear-gradient" y2="855.82" x2="325.47" y1="855.82" x1="163" id="linear-gradient-2"></linearGradient><linearGradient xlink:href="#linear-gradient" y2="838.3" x2="532" y1="838.3" x1="356.98" id="linear-gradient-3"></linearGradient><linearGradient xlink:href="#linear-gradient" y2="747.3" x2="1096.04" y1="919.99" x1="1148.22" id="linear-gradient-4"></linearGradient><linearGradient xlink:href="#linear-gradient" y2="876.45" x2="1116.28" y1="876.45" x1="1000.57" id="linear-gradient-5"></linearGradient><linearGradient xlink:href="#linear-gradient" y2="815.1" x2="1190.73" y1="907.96" x1="1206.08" id="linear-gradient-6"></linearGradient><linearGradient gradientUnits="userSpaceOnUse" y2="854.55" x2="1278" y1="854.55" x1="361.56" id="linear-gradient-7"><stop stop-color="#f7a06a" offset="0"></stop><stop stop-color="#ffd18f" offset="1"></stop></linearGradient><linearGradient xlink:href="#linear-gradient-7" y2="887.85" x2="825" y1="887.85" x1="111" id="linear-gradient-8"></linearGradient><linearGradient gradientUnits="userSpaceOnUse" y2="252.04" x2="272.7" y1="252.04" x1="79.25" id="linear-gradient-9"><stop stop-color="#e2e5e8" offset="0"></stop><stop stop-color="#c5cbd0" offset="1"></stop></linearGradient><linearGradient gradientUnits="userSpaceOnUse" y2="822.25" x2="1163.2" y1="587.82" x1="838.79" id="linear-gradient-10"><stop stop-color="#ed6263" offset="0"></stop><stop stop-color="#ffa9a9" offset="1"></stop></linearGradient><linearGradient xlink:href="#linear-gradient-10" y2="459.67" x2="335.57" y1="357.78" x1="871.09" id="linear-gradient-11"></linearGradient><linearGradient gradientUnits="userSpaceOnUse" y2="452.92" x2="381.93" y1="452.92" x1="165.83" id="linear-gradient-12"><stop stop-color="#002452" offset="0"></stop><stop stop-color="#001328" offset="1"></stop></linearGradient><linearGradient xlink:href="#linear-gradient-12" y2="843.48" x2="1225.56" y1="691.99" x1="1258.56" id="linear-gradient-13"></linearGradient><linearGradient xlink:href="#linear-gradient-10" y2="183.92" x2="1320.66" y1="183.92" x1="971.71" id="linear-gradient-14"></linearGradient><linearGradient xlink:href="#linear-gradient-10" y2="335.73" x2="891.23" y1="248.11" x1="893.6" id="linear-gradient-15"></linearGradient><linearGradient gradientUnits="userSpaceOnUse" y2="194.29" x2="1021.48" y1="194.29" x1="628.37" id="linear-gradient-16"><stop stop-color="#404aa9" offset="0"></stop><stop stop-color="#7284d3" offset="1"></stop></linearGradient><linearGradient xlink:href="#linear-gradient-10" y2="239.07" x2="819.38" y1="239.07" x1="544.57" id="linear-gradient-17"></linearGradient><linearGradient xlink:href="#linear-gradient-12" y2="417.7" x2="906.13" y1="604.07" x1="952.08" id="linear-gradient-18"></linearGradient><linearGradient gradientUnits="userSpaceOnUse" y2="376.24" x2="1014.9" y1="376.24" x1="753.23" id="linear-gradient-19"><stop stop-color="#3baca0" offset="0"></stop><stop stop-color="#58c6b6" offset="1"></stop></linearGradient><linearGradient xlink:href="#linear-gradient-10" y2="140.99" x2="669.76" y1="32.07" x1="711.26" id="linear-gradient-20"></linearGradient><linearGradient xlink:href="#linear-gradient-12" y2="42.3" x2="761.13" y1="42.3" x1="608.23" id="linear-gradient-21"></linearGradient></defs><g data-name="图层 2" id="图层_2"><g id="Soccer"><g id="Background"><path d="M1281.22,925.25H102.59S-10.67,920.33.82,782.44c0,0,62.38-446.5,490.82-522,0,0,146.1-26.27,241.31,105.06,0,0,93.57,114.91,242.95,73.87,0,0,274.13-83.72,362.78,305.32C1338.68,744.68,1369.87,877.65,1281.22,925.25Z" class="cls-1"></path></g><g id="Plant"><path d="M380.73,851.86h0c-.19,2.43-.5,4.93-1,7.49,0,0-3.89,37.58-15.27,56.22H309.07l-49.65-62.24s-10.59-14.42-12.52-31h0a39.07,39.07,0,0,1,.48-12.65s2.71-20.73-18.06-39.12c-18.06-16-33.94-55.59,18.06-94.78,12.93-9.75,51.42-27.58,64.55,12.23,6.59,20,6.72,22.87,3.17,65.8-1,11.4,8.72,33.3,29.53,37.81C362.45,795.52,383.42,817.92,380.73,851.86Z" class="cls-2"></path><path d="M333.49,917.73c-53.78-70.22-73.11-214-73.3-215.4l3-.39c.19,1.44,19.42,144.38,72.71,214Z" class="cls-3"></path><path d="M325.47,915.58H244.12c-23.41-7.27-21.48-22.83-22.32-32.23-1.66-18.54-23.67-17.72-33.1-19.56-32.58-6.36-28-38.27-19.56-48.15,31.79-37.22,69-13.09,76.74,4.52.33.76.67,1.49,1,2.2h0c9.78,19.88,24.55,17.35,24.55,17.35C316.44,823.36,324.37,900.87,325.47,915.58Z" class="cls-4"></path><path d="M513.69,820.16c-8.72,6.69-30.1,16.55-27.08,34.6,0,0,5.53,41.49-40.41,60.82H357l3.24-6.65s4.9-32,20.51-57.06h0c8.89-14.24,21.25-26.21,38.17-28.69,7.11-1,16.55,0,21.06-19.56,0,0,1.12-57,61.69-39.12C515.31,768.53,555.06,788.43,513.69,820.16Z" class="cls-5"></path><path d="M303.53,916.4C270.07,865,200.78,830.88,200.08,830.54l1.32-2.7c.7.34,70.72,34.85,104.65,86.92Z" class="cls-3"></path><path d="M402.19,915.85l-2.69-1.32c2.1-4.27,51.94-104.79,100-127.32l1.27,2.71C453.67,812,402.7,914.82,402.19,915.85Z" class="cls-3"></path></g><g data-name="Plant" id="Plant-2"><path d="M1170.55,887.42a53.15,53.15,0,0,1-2,5s-5.46,14.38-13,26h-44.22l-1.45-.38-28.1-44.9s-6.21-6.85-3.84-18.42c0,0,1.54-5.37,9-20.4,3.4-6.83,5.63-13.69-5.23-30.07a35,35,0,0,1-2.3-4c-7.44-15.3-7.11-41.71,31.93-57.57,10.63-4.31,40.22-9.5,42,20.14.78,13.34.51,16.33-6.91,37.43-.87,2.47-1.83,5.19-2.91,8.2-2.72,7.62-.1,24.38,13.32,31.26C1168.31,845.52,1178.58,864.67,1170.55,887.42Z" class="cls-6"></path><path d="M1125.81,918.69c-24.07-58-11.09-154.7-11-155.67l3,.41c-.13,1-13,96.88,10.75,154.11Z" class="cls-3"></path><path d="M1116.28,918.67h-57.62c-16.58-5.15-15.22-16.17-15.81-22.83-1.18-13.13-16.77-12.55-23.45-13.85-23.08-4.5-21.28-25.8-13.85-34.11,23.1-25.85,48.9-9.27,54.35,3.2.24.54.48,1.06.73,1.56h0c6.93,14.08,17.39,12.29,17.39,12.29C1109.89,853.35,1115.51,908.26,1116.28,918.67Z" class="cls-7"></path><path d="M1249.61,851.08c-6.17,4.74-21.31,11.73-19.18,24.51,0,0,3.92,29.39-28.63,43.08h-63.19l2.29-4.71s3.47-22.69,14.53-40.42h0c6.3-10.09,15-18.57,27-20.33,5-.73,11.72,0,14.92-13.85,0,0,.79-40.39,43.7-27.71C1250.76,814.51,1278.92,828.6,1249.61,851.08Z" class="cls-8"></path><path d="M1100.38,919.49c-23.64-36.28-72.62-60.42-73.11-60.66l1.31-2.7c.5.24,50.22,24.74,74.31,61.73Z" class="cls-3"></path><path d="M1171,919.06l-2.69-1.32c1.49-3,36.86-74.37,71.05-90.4l1.28,2.72C1207.41,845.64,1171.38,918.33,1171,919.06Z" class="cls-3"></path></g><g id="Sand"><path d="M405,907.25s152.28-1.38,197-35c57.17-43,133.43-144.72,282-48,22.78,14.84,53,48,99,45s98-9,138,19,41,21,93,19,64,18,64,18H361.56Z" class="cls-9"></path><path d="M111,925.25H825s-108-4-172-30c0,0-189.5-91.5-324-13,0,0-59.5,28.5-100.5,22.5C228.5,904.75,149.5,900.75,111,925.25Z" class="cls-10"></path></g><g id="Ball"><path d="M272.67,260A75.66,75.66,0,0,1,270,278.07a74.84,74.84,0,0,1-7.37,17.59c-11.72,20.38-32.51,34.68-56.88,40.25-1,.22-1.95.43-2.93.63a107.82,107.82,0,0,1-49.63-2.08,110.16,110.16,0,0,1-26.6-11.27,101,101,0,0,1-32.06-29.65C81.24,274.24,75.88,251,81.42,228.3c.18-.77.38-1.53.59-2.3,0-.2.11-.4.17-.59,6.56-23,23.25-40.71,44.86-50.71a101.13,101.13,0,0,1,43.47-9.12,109.75,109.75,0,0,1,28.31,4A107.6,107.6,0,0,1,242,193c.75.66,1.49,1.35,2.22,2C262.71,212.59,273.36,236,272.67,260Z" class="cls-11"></path><path d="M268.13,262.27c-8.32-15.43-15.72-22.93-20-26.34-1.68-6.35-6.93-24.87-12.85-32.78l8.94-8.12c-.73-.69-1.47-1.38-2.22-2l-9.25,8.4c-5.47-2.79-21.4-10.37-36.07-11.89-7.9-8.3-22.25-14.86-29.32-17.76l3.15-6.15A101,101,0,0,0,127,174.7l7.12,4.31a53.47,53.47,0,0,0-15.65,26.09c-10,5.62-22.65,19.43-25.63,22.75l-10.7-2.44c-.06.19-.12.39-.17.59-.21.77-.41,1.53-.59,2.3l11.09,2.54a109.89,109.89,0,0,0,10,32.28c-1.24,5.41-3.91,19.71-.51,31.15l-7.56-.72a101,101,0,0,0,32.06,29.65l1.08-6.26a60.82,60.82,0,0,0,16.87,2.59,37.56,37.56,0,0,0,17.26-3.86c12.31,5.69,32.9,9.59,38.28,10.54l2.74,10.33c1-.2,2-.41,2.93-.63L203,325.57c11-6.22,22.95-18.72,26.93-23.09h0c5,0,14.74-1.7,30.18-11.22l2.49,4.4A74.66,74.66,0,0,0,270,278.07,75.66,75.66,0,0,0,272.67,260Zm-51.95-16.48-9.06,32.71c-16.23,6.26-34.32,7.6-40.34,7.88L137,260.51c1.66-8.41,7.93-29,9.75-34.95l39.35-7.71C192,222.78,210,238,216.18,245.79Zm-76.81-67.07c5.32-1.81,15.64-4.91,24.43-5.16,5.16,2,21.69,8.88,30.28,17.57C192.67,196,188.6,209.29,185,215l-39.72,7.78c-6.61-4.19-19.32-13.71-23.84-17.12C126.37,188,137.83,179.76,139.37,178.72ZM123.31,312.27a103.85,103.85,0,0,1-16.85-14.87c-5-10.12-2.68-25.45-1.27-32.24,6.1-1.69,22.42-2.82,28.86-3.21l30.54,26.5a205.68,205.68,0,0,1-3.33,24.06C146.08,321,126,313.36,123.31,312.27ZM210,279.4,219,246.7c4.71-1.69,18.08-6.34,27.51-8.19,4.14,3.37,11.53,11,19.86,26.91a79.29,79.29,0,0,1-6.08,22.15c-17.19,11-27.21,12.07-31.27,11.88C220.36,293.3,212.75,283.28,210,279.4Z" class="cls-12"></path></g><g id="Man"><path d="M718.86,228.41S672,246.25,628,194.25l22-10S712.72,193.57,718.86,228.41Z" class="cls-13"></path><polygon points="737.51 82.98 806.24 134.75 756 200.25 674.13 134.75 737.51 82.98" class="cls-14"></polygon><path d="M1021.79,309.46S897,385.25,768.52,291.75c0,0,112.48-42.5,221.48-17.5C990,274.25,1014.58,285.67,1021.79,309.46Z" class="cls-13"></path><path d="M827,551.25s82,91,142,53l3-76-137-13Z" class="cls-13"></path><path d="M753.5,293.75s-46.5,133.5,59,164l35-3-8-152Z" class="cls-13"></path><path d="M1213.81,702.54l-9,87-324-26.46a63.53,63.53,0,0,1-58.17-68.34l10.54-133L835.86,528l124.58,34.5-9,53.38-5.39,32Z" class="cls-15"></path><path d="M960.44,562.46l-9,53.38c-36.64-42.65-98.59-52.12-118.26-54.1L835.86,528Z" class="cls-16"></path><path d="M854.81,450.33l-48.42-11.47-6.55-1.55-127.11-30.1-296,69.58L350,404.71l287.29-91.3a83.94,83.94,0,0,1,25.46-4H823.19Z" class="cls-17"></path><polygon points="352.75 401.6 261.99 421.05 165.83 411.32 287.93 504.24 381.93 477.23 352.75 401.6" class="cls-18"></polygon><polygon points="1189.75 793.2 1238.68 796.72 1269.68 886.88 1304.08 705.36 1203.74 697.68 1189.75 793.2" class="cls-19"></polygon><path d="M1320.1,233.48a7.37,7.37,0,0,1-6.81,4.57,7.56,7.56,0,0,1-1.33-.12L1257.43,228l35.76,18.42a6.76,6.76,0,0,1-5.65,12.27l-56-22.85-24.32,2.36s19.61,25.88,5.49,43.93L1180.55,228,1168,202.91,1059,170l-45.63-1.61-21.42-.75L971.71,85.69l13.45.74,58.42,3.21a63.17,63.17,0,0,1,25.74,7.08l122.21,63.83,36.87,4.71,36.09,7.84h33a5.47,5.47,0,0,1,4.13,9,5.4,5.4,0,0,1-3.35,1.83l-33.75,4.82,48,7.44a6.91,6.91,0,0,1-1,13.74l-48.52-1,52.22,14.57A7.37,7.37,0,0,1,1320.1,233.48Z" class="cls-20"></path><path d="M971.73,269.21s24,72.84,26.83,93l-175.37-22L784.85,274Z" class="cls-21"></path><path d="M708,222.54,687.15,234.9l-2.92,1.73L555.81,247.17,626.62,195l5.49-4s18.89-8.71,46.22,4C692,201.26,708,222.54,708,222.54Z" class="cls-14"></path><path d="M708,222.54,687.15,234.9c-8.23-29.73-41.47-37.75-60.53-39.89l5.49-4s18.89-8.71,46.22,4C692,201.26,708,222.54,708,222.54Z" class="cls-16"></path><polygon points="1013.32 168.37 991.9 167.62 971.71 85.69 985.16 86.43 1013.32 168.37" class="cls-16"></polygon><path d="M628.37,193s37.17-20.13,82.21,32.58l60.86,69.48s231.83-53.84,250,15.17c0,0-.88-42-94.79-135H999L977.48,81.75l-125-3.38a89.83,89.83,0,0,0-42.71,9.48L769,108.25s24.87,62.17-35.82,55a97.44,97.44,0,0,1-37.9-12.95l-3.68-2.17Z" class="cls-22"></path><path d="M854.81,450.33l-48.42-11.47-6.55-1.55c18.42-53.24-9.66-104.35-30.57-127.85h53.92Z" class="cls-16"></path><path d="M706.51,233.4l25.34-10.23s.62-45.43,27-45c0,0,12.12-5.95,17.73-1.46,0,0,5.38-6.36,17.56-.93,0,0,14.83-6.56,18.56,5,0,0,2.27,16.45-16.79,6.34a9,9,0,0,1-7.54,4.5c-3.45.24-8.35-1.34-8.35-1.34L779,223s12.51-30.53,40.41-23.57l-20,30.86s-3.28,33.55-39.34,34.26l-51,13S605.68,306.63,572,304.4c0,0-28.2-3.81-27.43-33.37,0,0,1-31.66,38.18-33.32Z" class="cls-23"></path><path d="M842,393.25,826.94,551S912,528.25,969.35,604.63c0,0,64.67-149.5,39.75-222.33Z" class="cls-24"></path><path d="M812.65,458s72.83-94.88-59.42-164.84c0,0,223.29-13.42,248.21,45,0,0,34.26,69.92-6.51,107A60.48,60.48,0,0,1,953,460.62Z" class="cls-25"></path><path d="M735.72,102.62s-15.17,53.56-57.12,52.67c-24.92-.53-36.6-34-37.49-102.66L743.76,41.92l11.6,31.24S757.15,93.69,735.72,102.62Z" class="cls-26"></path><path d="M741.08,19.61C735.94,7.46,701.8,0,705.73,10.83c-6.25-3.19-31.52-15.31-43.2-9.07-6.35,3.38-7.28,7.57-6.5,11-16.58-4.51-30-10.55-43,6.36-13.84,18,6,36.66,14.71,43.48,5,9.71,14.3,15,14.3,15V59.78A132.22,132.22,0,0,1,687.52,50c25.89-.9,32.14,31.24,32.14,31.24l8-3.57a50,50,0,0,1,2.43-8.32,11.3,11.3,0,0,1,12.74-7.08c12,2.61,10.92,22.38,10.92,22.38C775.89,37.46,741.08,19.61,741.08,19.61Z" class="cls-27"></path><path d="M756.21,198.87c-4.32,0-8.85-2.92-9.46-3.33l1.67-2.49c1.68,1.11,6.67,3.73,9.61,2.49,1.29-.54,2.1-1.82,2.49-3.9l.39-2,1.81,1c2.67,1.46,10.37,4.85,13.91,3a4,4,0,0,0,1.87-3.45l.21-2.22,2,1c2.11,1.09,8.31,3.54,11.58,1.85a4.53,4.53,0,0,0,2.24-3.73l.32-2.19,1.92,1.1c2,1.16,8,3.79,11.52,2.17,1.56-.71,2.53-2.17,3-4.49l3,.58c-.65,3.28-2.22,5.52-4.69,6.64-4.16,1.9-9.7-.11-12.5-1.4a6.78,6.78,0,0,1-3.37,4c-3.92,2-9.65.16-12.54-1a6.24,6.24,0,0,1-3.06,3.82c-4.45,2.37-11.73-.53-15.07-2.13a6.85,6.85,0,0,1-3.78,4.22A7.56,7.56,0,0,1,756.21,198.87Z" class="cls-12"></path></g></g></g></svg>